<svg width="84" height="127" viewBox="0 0 84 127" fill="none" xmlns="http://www.w3.org/2000/svg">
<path d="M53.9235 41.302L61.4863 36.836V31.864L57.7486 28.102L60.8525 25L63.6721 27.838L66.4918 25L69.5956 28.102L65.8579 31.864V36.836L71.3224 40.004L75.694 37.518L76.9617 32.392L81.1585 33.536L80.1311 37.43L84 38.464L82.8634 42.71L77.7705 41.346L73.3989 43.832V50.19L77.7705 52.676L82.8634 51.312L84 55.558L80.1311 56.592L81.1585 60.464L76.9399 61.608L75.5847 56.482L71.2131 53.996L65.8579 57.164V62.136L69.5956 65.898L66.4918 69L63.6721 66.162L60.8525 69L57.7705 65.898L61.4863 62.136V57.164L53.9235 52.742M69.1366 43.832L63.6721 40.642L58.2076 43.832V50.168L63.6721 53.358L69.1366 50.168M48.3716 49.2V36H44V49.2H48.3716ZM48.3716 58V53.6H44V58H48.3716Z" fill="#00BFE8"/>
<path d="M29.8786 122.5C24.1942 122.506 18.6347 120.833 13.8981 117.69C9.16148 114.548 5.45897 110.076 3.25548 104.836C1.05199 99.5959 0.445754 93.8218 1.5129 88.2385C2.58004 82.6552 5.27299 77.5117 9.25359 73.4538V27.625C9.25359 22.1549 11.4266 16.9089 15.2945 13.0409C19.1625 9.17298 24.4085 7 29.8786 7C35.3487 7 40.5947 9.17298 44.4627 13.0409C48.3306 16.9089 50.5036 22.1549 50.5036 27.625V73.4538C54.4842 77.5117 57.1771 82.6552 58.2443 88.2385C59.3114 93.8218 58.7052 99.5959 56.5017 104.836C54.2982 110.076 50.5957 114.548 45.8591 117.69C41.1225 120.833 35.5629 122.506 29.8786 122.5ZM29.8786 15.25C26.5975 15.2533 23.4518 16.5581 21.1318 18.8782C18.8117 21.1982 17.5069 24.344 17.5036 27.625V77.0549L16.1341 78.2882C13.0192 81.0723 10.8232 84.7366 9.83678 88.7962C8.85034 92.8557 9.11997 97.1192 10.61 101.022C12.1 104.925 14.7401 108.284 18.1809 110.653C21.6217 113.022 25.7009 114.291 29.8786 114.291C34.0563 114.291 38.1355 113.022 41.5763 110.653C45.0171 108.284 47.6572 104.925 49.1472 101.022C50.6372 97.1192 50.9068 92.8557 49.9204 88.7962C48.934 84.7366 46.738 81.0723 43.6231 78.2882L42.2536 77.0549V27.625C42.2503 24.344 40.9455 21.1982 38.6254 18.8782C36.3054 16.5581 33.1596 15.2533 29.8786 15.25Z" fill="black"/>
<circle cx="29.7534" cy="93.75" r="13" fill="#00BFE8"/>
<rect x="23.7534" y="64.75" width="12" height="29" rx="6" fill="#00BFE8"/>
</svg>
